<?xml version="1.0" encoding="iso-8859-1"?>
<!-- Generator: Adobe Illustrator 19.0.0, SVG Export Plug-In . SVG Version: 6.00 Build 0)  -->
<svg version="1.1" id="Capa_1" xmlns="http://www.w3.org/2000/svg" xmlns:xlink="http://www.w3.org/1999/xlink" x="0px" y="0px"
	 viewBox="0 0 471.04 471.04" style="enable-background:new 0 0 471.04 471.04;" xml:space="preserve">
<g>
	<g>
		<path d="M81.92,25.6H61.44V5.12c0-3.072-2.048-5.12-5.12-5.12S51.2,2.048,51.2,5.12V25.6H30.72c-3.072,0-5.12,2.048-5.12,5.12
			c0,3.072,2.048,5.12,5.12,5.12H51.2v20.48c0,3.072,2.048,5.12,5.12,5.12s5.12-2.048,5.12-5.12V35.84h20.48
			c3.072,0,5.12-2.048,5.12-5.12C87.04,27.648,84.992,25.6,81.92,25.6z"/>
	</g>
</g>
<g>
	<g>
		<path d="M453.12,76.8h-7.68v-7.68c0-3.072-2.048-5.12-5.12-5.12c-3.072,0-5.12,2.048-5.12,5.12v7.68h-7.68
			c-3.072,0-5.12,2.048-5.12,5.12c0,3.072,2.048,5.12,5.12,5.12h7.68v7.68c0,3.072,2.048,5.12,5.12,5.12
			c3.072,0,5.12-2.048,5.12-5.12v-7.68h7.68c3.072,0,5.12-2.048,5.12-5.12C458.24,78.848,456.192,76.8,453.12,76.8z"/>
	</g>
</g>
<g>
	<g>
		<path d="M43.008,435.2h-7.68v-7.68c0-3.072-2.048-5.12-5.12-5.12s-5.12,2.048-5.12,5.12v7.68h-7.68c-3.072,0-5.12,2.048-5.12,5.12
			c0,3.072,2.048,5.12,5.12,5.12h7.68v7.68c0,3.072,2.048,5.12,5.12,5.12s5.12-2.048,5.12-5.12v-7.68h7.68
			c3.072,0,5.12-2.048,5.12-5.12C48.128,437.248,46.08,435.2,43.008,435.2z"/>
	</g>
</g>
<g>
	<g>
		<path d="M414.72,25.6h-51.2c-3.072,0-5.12,2.048-5.12,5.12c0,3.072,2.048,5.12,5.12,5.12h51.2c3.072,0,5.12-2.048,5.12-5.12
			C419.84,27.648,417.792,25.6,414.72,25.6z"/>
	</g>
</g>
<g>
	<g>
		<path d="M465.92,358.4h-51.2c-3.072,0-5.12,2.048-5.12,5.12c0,3.072,2.048,5.12,5.12,5.12h51.2c3.072,0,5.12-2.048,5.12-5.12
			C471.04,360.448,468.48,358.4,465.92,358.4z"/>
	</g>
</g>
<g>
	<g>
		<path d="M363.52,435.2h-51.2c-3.072,0-5.12,2.048-5.12,5.12c0,3.072,2.048,5.12,5.12,5.12h51.2c3.072,0,5.12-2.048,5.12-5.12
			C368.64,437.248,366.08,435.2,363.52,435.2z"/>
	</g>
</g>
<g>
	<g>
		<path d="M30.72,128H5.12C2.048,128,0,130.048,0,133.12c0,3.072,2.048,5.12,5.12,5.12h25.6c2.56,0,5.12-2.048,5.12-5.12
			C35.84,130.048,33.792,128,30.72,128z"/>
	</g>
</g>
<g>
	<g>
		<path d="M440.32,153.6c-3.072,0-5.12,2.048-5.12,5.12c0,3.072,2.56,5.12,5.12,5.12s5.12-2.048,5.12-5.12
			C445.44,155.648,443.392,153.6,440.32,153.6z"/>
	</g>
</g>
<g>
	<g>
		<path d="M30.72,307.2c-3.072,0-5.12,2.048-5.12,5.12c0,3.072,2.56,5.12,5.12,5.12s5.12-2.048,5.12-5.12
			C35.84,309.248,33.28,307.2,30.72,307.2z"/>
	</g>
</g>
<g>
	<g>
		<path d="M184.32,460.8c-3.072,0-5.12,2.048-5.12,5.12c0,3.072,2.56,5.12,5.12,5.12s5.12-2.048,5.12-5.12
			C189.44,462.848,186.88,460.8,184.32,460.8z"/>
	</g>
</g>
<g>
	<g>
		<path d="M144.384,138.24h-25.6c-4.096,0-7.68,3.584-7.68,7.68c0,4.096,3.584,7.68,7.68,7.68h25.6c4.096,0,7.68-3.584,7.68-7.68
			C152.064,141.824,148.48,138.24,144.384,138.24z"/>
	</g>
</g>
<g>
	<g>
		<path d="M195.584,317.44h-25.6c-4.096,0-7.68,3.584-7.68,7.68s3.584,7.68,7.68,7.68h25.6c4.096,0,7.68-3.584,7.68-7.68
			S199.68,317.44,195.584,317.44z"/>
	</g>
</g>
<g>
	<g>
		<path d="M233.984,51.2c-92.672,0-169.472,68.608-182.272,157.696c0,0.512,0,0.512,0,1.024c-1.024,8.192-2.048,16.896-2.048,25.6
			c0,101.376,82.944,184.32,184.32,184.32c101.888,0,184.32-82.432,184.32-184.32S335.872,51.2,233.984,51.2z M221.184,128h149.504
			c2.56,3.072,5.12,6.656,7.68,10.24H221.184c-4.096,0-7.68,3.584-7.68,7.68c0,4.096,3.584,7.68,7.68,7.68h166.4
			c2.048,3.584,3.584,6.656,5.12,10.24h-171.52c-9.728,0-17.92-8.192-17.92-17.92C203.264,136.192,211.456,128,221.184,128z
			 M118.784,128h25.6c9.728,0,17.92,8.192,17.92,17.92c0,9.728-8.192,17.92-17.92,17.92h-25.6c-9.728,0-17.92-8.192-17.92-17.92
			C100.864,136.192,109.056,128,118.784,128z M59.904,240.64c0-1.536,0-3.584,0-5.12s0-3.584,0-5.12h212.48
			c4.096,0,7.68-3.584,7.68-7.68s-3.584-7.68-7.68-7.68H60.928c0.512-3.584,1.024-6.656,1.536-10.24h209.92
			c9.728,0,17.92,8.192,17.92,17.92c0,9.728-8.192,17.92-17.92,17.92H59.904z M169.984,291.84c-18.432,0-33.28,14.848-33.28,33.28
			c0,18.432,14.848,33.28,33.28,33.28h186.368h0.512c-3.584,3.584-7.168,7.168-10.752,10.24H169.984
			c-24.064,0-43.52-19.456-43.52-43.52c0-24.064,19.456-43.52,43.52-43.52H401.92c-1.024,3.584-2.048,6.656-3.072,10.24H169.984z
			 M213.504,325.12c0,9.728-8.192,17.92-17.92,17.92h-25.6c-9.728,0-17.92-8.192-17.92-17.92c0-9.728,8.192-17.92,17.92-17.92h25.6
			C205.312,307.2,213.504,315.392,213.504,325.12z"/>
	</g>
</g>
<g>
</g>
<g>
</g>
<g>
</g>
<g>
</g>
<g>
</g>
<g>
</g>
<g>
</g>
<g>
</g>
<g>
</g>
<g>
</g>
<g>
</g>
<g>
</g>
<g>
</g>
<g>
</g>
<g>
</g>
</svg>
